<?xml version="1.0" encoding="UTF-8"?>
<svg xmlns="http://www.w3.org/2000/svg" viewBox="0 0 309.72 357.92">
  <defs>
    <style>
      .cls-1 {
        opacity: .3;
      }

      .cls-2 {
        opacity: .2;
      }

      .cls-3 {
        fill: none;
        stroke: #2e5b85;
        stroke-miterlimit: 10;
      }
    </style>
  </defs>
  <g id="_图层_3" data-name="图层_3" class="cls-2">
    <line class="cls-3" x1=".5" y1="89.7" x2="309.22" y2="267.94"/>
    <line class="cls-3" x1="309.22" y1="89.7" x2=".5" y2="267.94"/>
    <line class="cls-3" x1="154.86" y1="357.06" x2="154.86" y2=".58"/>
    <line class="cls-3" x1=".5" y1="89.7" x2="309.22" y2="89.7"/>
    <line class="cls-3" x1="154.86" y1=".58" x2="309.22" y2="267.94"/>
    <line class="cls-3" x1="309.22" y1="89.7" x2="154.86" y2="357.06"/>
    <line class="cls-3" x1="309.22" y1="267.94" x2=".5" y2="267.94"/>
    <line class="cls-3" x1="154.86" y1=".58" x2=".5" y2="267.94"/>
    <line class="cls-3" x1=".5" y1="89.7" x2="154.86" y2="357.06"/>
    <line class="cls-3" x1="32.25" y1="71.37" x2="309.22" y2="231.28"/>
    <line class="cls-3" x1="32.25" y1="108.03" x2="32.25" y2="71.37"/>
    <line class="cls-3" x1="277.47" y1="249.61" x2="309.22" y2="231.28"/>
    <line class="cls-3" x1="16.37" y1="80.54" x2="309.22" y2="249.61"/>
    <line class="cls-3" x1="186.61" y1="338.73" x2="186.61" y2="18.68"/>
    <line class="cls-3" x1="170.73" y1="9.74" x2="170.73" y2="347.89"/>
    <line class="cls-3" x1="123.11" y1="18.91" x2="123.11" y2="338.73"/>
    <line class="cls-3" x1=".5" y1="249.72" x2="293.27" y2="80.49"/>
    <line class="cls-3" x1="309.29" y1="108.03" x2="16.34" y2="277.08"/>
    <line class="cls-3" x1="48.12" y1="98.87" x2="48.1" y2="258.76"/>
    <line class="cls-3" x1="32.25" y1="126.04" x2="170.73" y2="48.68"/>
    <line class="cls-3" x1="293.04" y1="277.28" x2=".5" y2="107.63"/>
    <line class="cls-3" x1="32.56" y1="286.45" x2="309.22" y2="126.08"/>
    <line class="cls-3" x1=".5" y1="107.63" x2="170.73" y2="9.74"/>
  </g>
  <g id="_图层_1" data-name="图层_1" class="cls-2">
    <polygon class="cls-3" points="154.86 .58 .5 89.7 .5 267.94 154.86 357.06 309.22 267.94 309.22 89.7 154.86 .58"/>
    <polygon class="cls-3" points="154.86 37.24 32.25 108.03 32.25 249.61 154.86 320.4 277.47 249.61 277.47 108.03 154.86 37.24"/>
  </g>
  <g id="_图层_2" data-name="图层_2" class="cls-1">
    <polyline class="cls-3" points=".5 107.63 .5 267.94 154.86 357.06 154.86 197.14 123.11 178.7 123.11 302.06 32.25 249.61 32.25 126.04 48.11 117.18 154.66 178.7 277.47 108.03 154.86 37.24 48.12 98.87 16.37 80.54 154.86 .58 309.22 89.7 309.22 267.94 170.73 347.89 170.74 311.23 277.47 249.61 277.47 144.69 170.58 206.26"/>
  </g>
</svg>