<?xml version="1.0" encoding="UTF-8"?>
<svg xmlns="http://www.w3.org/2000/svg" viewBox="0 0 308.97 356.84">
  <defs>
    <style>
      .cls-1 {
        fill: none;
        stroke: gray;
        stroke-miterlimit: 10;
        stroke-width: .25px;
      }

      .cls-2 {
        opacity: .2;
      }

      .cls-3 {
        opacity: .1;
      }
    </style>
  </defs>
  <g id="_图层_3" data-name="图层_3" class="cls-3">
    <line class="cls-1" x1=".13" y1="89.26" x2="308.85" y2="267.5"/>
    <line class="cls-1" x1="308.85" y1="89.26" x2=".13" y2="267.5"/>
    <line class="cls-1" x1="154.49" y1="356.63" x2="154.49" y2=".14"/>
    <line class="cls-1" x1=".13" y1="89.26" x2="308.85" y2="89.26"/>
    <line class="cls-1" x1="154.49" y1=".14" x2="308.85" y2="267.5"/>
    <line class="cls-1" x1="308.85" y1="89.26" x2="154.49" y2="356.63"/>
    <line class="cls-1" x1="308.85" y1="267.5" x2=".13" y2="267.5"/>
    <line class="cls-1" x1="154.49" y1=".14" x2=".13" y2="267.5"/>
    <line class="cls-1" x1=".13" y1="89.26" x2="154.49" y2="356.63"/>
    <line class="cls-1" x1="31.88" y1="70.93" x2="308.85" y2="230.84"/>
    <line class="cls-1" x1="31.88" y1="107.6" x2="31.88" y2="70.93"/>
    <line class="cls-1" x1="277.1" y1="249.17" x2="308.85" y2="230.84"/>
    <line class="cls-1" x1="15.99" y1="80.1" x2="308.85" y2="249.17"/>
    <line class="cls-1" x1="186.24" y1="338.29" x2="186.24" y2="18.24"/>
    <line class="cls-1" x1="170.36" y1="9.31" x2="170.36" y2="347.46"/>
    <line class="cls-1" x1="122.74" y1="18.48" x2="122.74" y2="338.29"/>
    <line class="cls-1" x1=".13" y1="249.28" x2="292.9" y2="80.06"/>
    <line class="cls-1" x1="308.91" y1="107.6" x2="15.96" y2="276.65"/>
    <line class="cls-1" x1="47.74" y1="98.44" x2="47.72" y2="258.32"/>
    <line class="cls-1" x1="31.88" y1="125.61" x2="170.36" y2="48.25"/>
    <line class="cls-1" x1="292.67" y1="276.85" x2=".13" y2="107.2"/>
    <line class="cls-1" x1="32.18" y1="286.01" x2="308.85" y2="125.65"/>
    <line class="cls-1" x1=".13" y1="107.2" x2="170.36" y2="9.31"/>
  </g>
  <g id="_图层_1" data-name="图层_1" class="cls-3">
    <polygon class="cls-1" points="154.49 .14 .13 89.26 .13 267.5 154.49 356.63 308.85 267.5 308.85 89.26 154.49 .14"/>
    <polygon class="cls-1" points="154.49 36.81 31.88 107.6 31.88 249.17 154.49 319.96 277.1 249.17 277.1 107.6 154.49 36.81"/>
  </g>
  <g id="_图层_2" data-name="图层_2" class="cls-2">
    <polyline class="cls-1" points=".13 107.2 .13 267.5 154.49 356.63 154.49 196.71 122.74 178.27 122.74 301.63 31.88 249.17 31.88 125.61 47.73 116.75 154.29 178.27 277.1 107.6 154.49 36.81 47.74 98.44 15.99 80.1 154.49 .14 308.85 89.26 308.85 267.5 170.36 347.46 170.36 310.8 277.1 249.17 277.1 144.26 170.21 205.83"/>
  </g>
</svg>