<?xml version="1.0" encoding="UTF-8"?>
<svg id="_图层_2" data-name="图层_2" xmlns="http://www.w3.org/2000/svg" viewBox="0 0 317.72 366.86">
  <defs>
    <style>
      .cls-1 {
        fill: #d9d9d9;
      }
    </style>
  </defs>
  <polygon class="cls-1" points="317.72 91.72 317.72 275.15 183.57 352.6 183.56 352.59 170.23 360.29 170.23 313.25 276.97 251.63 276.97 157.09 174.73 215.99 174.73 205.6 285.97 141.52 285.97 256.82 179.23 318.45 179.23 344.71 308.72 269.96 308.72 96.91 158.86 10.39 29.36 85.15 52.11 98.29 158.86 36.66 285.97 110.05 285.97 115.25 158.65 188.51 52.07 126.98 40.75 133.3 40.75 251.63 122.61 298.89 122.61 175.5 163.36 199.17 163.36 364.26 158.85 366.86 0 275.15 0 109.72 9 114.86 9 269.96 154.36 353.88 154.36 204.35 131.61 191.14 131.61 314.48 31.75 256.82 31.75 128.02 52.14 116.62 158.66 178.13 272.46 112.64 158.86 47.05 52.11 108.68 11.36 85.15 158.86 0 317.72 91.72"/>
</svg>