<svg 
 xmlns="http://www.w3.org/2000/svg"
 xmlns:xlink="http://www.w3.org/1999/xlink"
 width="1467px" height="118px">
<path fill-rule="evenodd"  fill="rgb(28, 30, 33)"
 d="M1466.944,43.182 L1466.944,117.732 L1374.394,117.732 L1374.394,86.682 L1428.994,86.682 L1428.994,74.682 L1374.394,74.682 L1374.394,0.132 L1466.944,0.132 L1466.944,31.182 L1412.344,31.182 L1412.344,43.182 L1466.944,43.182 ZM1325.794,103.332 L1314.694,103.332 L1314.694,87.132 L1309.144,87.132 L1309.144,117.732 L1271.644,117.732 L1271.644,0.132 L1309.144,0.132 L1309.144,30.732 L1314.694,30.732 L1314.694,14.532 L1325.794,14.532 L1325.794,0.132 L1363.294,0.132 L1363.294,41.382 L1350.844,41.382 L1350.844,52.482 L1339.294,52.482 L1339.294,65.382 L1350.844,65.382 L1350.844,76.482 L1363.294,76.482 L1363.294,117.732 L1325.794,117.732 L1325.794,103.332 ZM1165.144,0.132 L1261.444,0.132 L1261.444,31.182 L1203.994,31.182 L1203.994,86.682 L1261.444,86.682 L1261.444,117.732 L1165.144,117.732 L1165.144,0.132 ZM1051.294,0.132 L1153.144,0.132 L1153.144,117.732 L1051.294,117.732 L1051.294,0.132 ZM1089.244,86.232 L1115.194,86.232 L1115.194,31.632 L1089.244,31.632 L1089.244,86.232 ZM954.094,0.132 L991.594,0.132 L991.594,86.682 L1041.994,86.682 L1041.994,117.732 L954.094,117.732 L954.094,0.132 ZM852.244,0.132 L942.094,0.132 L942.094,56.232 L931.894,56.232 L931.894,61.782 L942.094,61.782 L942.094,117.732 L852.244,117.732 L852.244,0.132 ZM891.094,86.232 L903.244,86.232 L903.244,75.132 L891.094,75.132 L891.094,86.232 ZM891.094,42.732 L903.244,42.732 L903.244,31.632 L891.094,31.632 L891.094,42.732 ZM752.194,0.132 L841.144,0.132 L841.144,31.182 L791.044,31.182 L791.044,43.182 L841.144,43.182 L841.144,74.682 L791.044,74.682 L791.044,86.682 L841.144,86.682 L841.144,117.732 L752.194,117.732 L752.194,0.132 ZM652.144,0.132 L741.094,0.132 L741.094,31.182 L690.994,31.182 L690.994,43.182 L741.094,43.182 L741.094,74.682 L690.994,74.682 L690.994,86.682 L741.094,86.682 L741.094,117.732 L652.144,117.732 L652.144,0.132 ZM601.744,75.132 L588.694,75.132 L588.694,117.732 L550.294,117.732 L550.294,0.132 L640.144,0.132 L640.144,67.332 L629.944,67.332 L629.944,72.882 L640.144,72.882 L640.144,117.732 L601.744,117.732 L601.744,75.132 ZM601.294,31.632 L589.144,31.632 L589.144,42.732 L601.294,42.732 L601.294,31.632 ZM500.794,75.132 L480.394,75.132 L480.394,117.732 L442.894,117.732 L442.894,0.132 L480.394,0.132 L480.394,42.732 L500.794,42.732 L500.794,0.132 L538.294,0.132 L538.294,117.732 L500.794,117.732 L500.794,75.132 ZM407.344,117.732 L368.494,117.732 L368.494,31.182 L342.994,31.182 L342.994,0.132 L432.844,0.132 L432.844,31.182 L407.344,31.182 L407.344,117.732 ZM230.044,0.132 L331.894,0.132 L331.894,117.732 L230.044,117.732 L230.044,0.132 ZM267.994,86.232 L293.944,86.232 L293.944,31.632 L267.994,31.632 L267.994,86.232 ZM180.544,107.082 L169.444,107.082 L169.444,93.732 L149.044,93.732 L149.044,107.082 L137.944,107.082 L137.944,117.732 L100.444,117.732 L100.444,0.132 L137.944,0.132 L137.944,56.682 L145.294,56.682 L145.294,42.732 L173.194,42.732 L173.194,56.682 L180.544,56.682 L180.544,0.132 L218.044,0.132 L218.044,117.732 L180.544,117.732 L180.544,107.082 ZM64.894,117.732 L26.044,117.732 L26.044,31.182 L0.544,31.182 L0.544,0.132 L90.394,0.132 L90.394,31.182 L64.894,31.182 L64.894,117.732 Z"/>
</svg>